<?xml version="1.0" standalone="no"?>
<!DOCTYPE svg PUBLIC "-//W3C//DTD SVG 20010904//EN"
 "http://www.w3.org/TR/2001/REC-SVG-20010904/DTD/svg10.dtd">
<svg version="1.0" xmlns="http://www.w3.org/2000/svg"
 width="640.000000pt" height="640.000000pt" viewBox="0 0 640.000000 640.000000"
 preserveAspectRatio="xMidYMid meet">
<metadata>
Created by potrace 1.11, written by Peter Selinger 2001-2013
</metadata>
<g transform="translate(0.000000,640.000000) scale(0.100000,-0.100000)"
fill="#000000" stroke="none">
<path d="M3040 5955 c0 -19 0 -37 0 -40 0 -3 12 -8 28 -13 24 -6 27 -12 30
-56 2 -27 -2 -81 -9 -120 -10 -61 -17 -76 -48 -106 -20 -19 -44 -39 -54 -45
-17 -9 -17 -13 -1 -57 9 -27 20 -48 26 -48 28 0 119 55 143 86 34 44 65 140
65 198 0 24 3 64 6 90 l7 46 50 0 50 0 -7 -46 c-3 -26 -6 -95 -6 -155 0 -104
-1 -108 -22 -111 -19 -2 -24 -10 -26 -42 -2 -21 0 -42 5 -47 4 -4 58 -9 118
-10 l110 -2 3 47 c3 41 1 46 -18 46 -11 0 -23 7 -27 15 -3 9 -2 81 2 160 7
140 8 144 29 142 18 -2 21 4 24 41 2 28 -1 44 -10 46 -7 3 -115 7 -240 11
l-228 6 0 -36z"/>
<path d="M3750 5924 c-14 -36 -12 -64 4 -64 8 0 17 -3 19 -8 4 -6 -17 -76 -46
-152 -3 -8 -14 -42 -25 -75 -18 -54 -23 -60 -50 -63 -24 -2 -31 -10 -40 -40
-6 -20 -10 -37 -9 -39 6 -6 202 -73 213 -73 15 0 38 65 29 80 -3 5 -12 10 -20
10 -11 0 -10 10 4 53 19 55 41 69 79 48 16 -8 18 -18 14 -64 -8 -99 31 -168
121 -213 60 -31 137 -40 197 -24 94 25 172 151 173 280 1 73 -9 98 -61 153
-65 68 -201 98 -275 61 -41 -21 -85 -62 -103 -95 -13 -26 -15 -26 -51 -14 -43
15 -42 14 -23 73 12 37 17 43 38 40 21 -3 27 3 38 34 7 21 9 40 5 42 -12 8
-205 76 -214 76 -4 0 -12 -12 -17 -26z m478 -228 c58 -30 66 -104 22 -204 -39
-87 -90 -118 -148 -88 -35 18 -42 33 -42 91 0 76 46 174 95 203 27 15 41 15
73 -2z"/>
<path d="M2528 5917 c-76 -22 -123 -59 -153 -122 -25 -50 -27 -63 -22 -130 13
-177 115 -270 274 -251 98 11 167 55 204 129 32 62 24 183 -16 262 -53 103
-164 146 -287 112z m118 -122 c34 -36 50 -77 60 -156 7 -63 -19 -111 -68 -123
-72 -18 -113 28 -141 159 -9 47 -9 60 6 90 16 34 60 64 96 65 7 0 29 -16 47
-35z"/>
<path d="M2075 5771 c-6 -4 -95 -52 -200 -105 -104 -54 -192 -100 -194 -102
-3 -2 3 -20 12 -39 15 -31 21 -35 49 -33 31 3 33 1 67 -77 23 -54 35 -100 39
-145 4 -62 3 -68 -21 -87 l-26 -20 50 -96 c28 -54 52 -97 54 -97 3 0 71 37 83
46 2 1 -8 25 -22 53 -14 28 -26 54 -26 60 0 9 240 137 277 147 18 5 26 -2 48
-45 14 -28 30 -51 35 -51 20 0 80 34 80 46 0 7 -20 50 -45 96 -40 76 -47 83
-72 81 -26 -2 -32 5 -98 133 -65 125 -69 136 -52 148 21 17 22 30 0 67 -19 31
-24 34 -38 20z m-45 -283 c34 -68 66 -127 71 -132 5 -6 9 -13 9 -17 0 -7 -132
-81 -135 -76 -1 1 -6 34 -12 73 -7 44 -25 100 -48 148 -41 85 -41 83 20 111
17 8 31 14 32 15 1 0 30 -55 63 -122z"/>
<path d="M4656 5549 c-31 -36 -32 -45 -8 -58 21 -12 19 -16 -91 -165 -71 -97
-79 -105 -97 -93 -18 10 -23 8 -45 -18 -13 -17 -24 -33 -25 -36 0 -10 238
-181 279 -201 54 -26 108 -23 148 8 105 80 97 180 -24 277 -34 28 -63 54 -63
59 0 4 13 22 29 40 l29 32 51 -39 c52 -40 58 -49 41 -60 -18 -11 -10 -31 22
-55 l31 -23 24 29 c13 16 33 41 43 55 l20 27 -78 58 c-42 32 -102 76 -132 98
-30 22 -72 52 -92 68 l-36 28 -26 -31z m77 -358 c15 -14 27 -32 27 -40 0 -24
-48 -71 -71 -71 -20 0 -89 46 -89 60 0 4 16 28 36 54 39 51 37 51 97 -3z"/>
<path d="M1471 5415 c-35 -30 -68 -58 -74 -64 -6 -6 -2 -20 12 -40 17 -24 28
-30 45 -25 21 5 25 -1 50 -81 15 -48 25 -89 23 -92 -3 -2 -42 14 -87 37 -70
35 -80 44 -75 61 7 21 -27 69 -49 69 -13 0 -151 -118 -151 -128 0 -4 10 -21
23 -37 19 -23 26 -27 40 -18 14 8 44 -2 142 -44 69 -30 138 -56 155 -57 42 -2
44 -29 5 -65 l-32 -29 17 -36 c10 -20 20 -36 24 -36 16 0 99 59 119 85 12 15
22 42 22 59 0 18 -23 115 -51 216 -41 147 -49 188 -40 203 10 14 7 24 -11 47
-13 16 -27 29 -33 29 -5 0 -39 -24 -74 -54z"/>
<path d="M5177 5135 c-24 -22 -26 -27 -15 -45 15 -24 11 -28 -136 -148 -81
-67 -90 -72 -105 -57 -24 20 -34 19 -59 -8 -27 -29 -27 -36 1 -67 12 -14 44
-51 70 -83 27 -31 52 -57 55 -57 4 0 20 12 35 26 24 20 27 27 16 40 -26 31 4
36 121 20 62 -9 115 -18 118 -21 3 -3 -6 -13 -19 -24 -13 -10 -35 -29 -49 -41
-54 -48 -69 -54 -88 -36 -17 15 -20 14 -47 -14 -32 -34 -35 -26 55 -133 30
-36 60 -66 65 -66 6 -1 23 10 40 23 29 23 29 25 12 44 -18 19 -16 21 75 97 51
43 106 88 121 102 26 23 30 23 46 9 10 -9 22 -16 27 -16 13 1 54 36 54 47 0 8
-108 144 -140 177 -5 5 -23 -5 -41 -22 -28 -26 -31 -33 -19 -46 7 -9 10 -20 6
-23 -7 -8 -223 21 -232 30 -6 5 17 27 92 91 28 22 33 24 44 11 7 -8 16 -15 21
-15 12 0 59 42 59 52 0 10 -140 178 -149 178 -3 0 -18 -12 -34 -25z"/>
<path d="M1043 4970 c-17 -4 -44 -18 -60 -31 -26 -21 -194 -229 -201 -249 -2
-4 11 -18 28 -30 28 -20 35 -21 55 -10 17 9 28 10 37 3 7 -5 61 -47 120 -92
99 -76 107 -84 97 -104 -10 -18 -8 -24 17 -44 16 -13 34 -21 39 -20 11 4 130
152 142 176 4 9 -6 25 -27 44 l-33 29 -16 -26 c-8 -14 -18 -26 -21 -26 -3 0
-20 12 -38 28 l-32 27 42 63 c32 49 41 73 41 105 0 58 -26 103 -81 138 -48 30
-57 32 -109 19z m44 -152 c33 -36 36 -61 12 -92 -21 -26 -22 -27 -48 -10 -14
10 -39 30 -55 45 l-29 27 26 26 c32 32 67 33 94 4z"/>
<path d="M3466 4830 c-67 -8 -259 -64 -282 -81 -6 -5 -37 -23 -70 -40 -32 -18
-106 -73 -164 -123 -58 -51 -141 -120 -185 -153 -126 -97 -337 -333 -416 -465
-79 -133 -202 -369 -195 -375 3 -3 21 20 41 51 19 31 37 56 40 56 7 0 -26 -74
-41 -91 -8 -9 -11 -19 -7 -22 3 -4 1 -7 -5 -7 -7 0 -12 -5 -12 -11 0 -6 7 -9
15 -5 8 3 15 1 15 -4 0 -25 18 -6 24 25 9 49 34 105 47 105 6 0 7 -5 2 -12 -4
-7 -13 -33 -20 -58 -10 -38 -9 -47 4 -57 8 -6 12 -16 9 -21 -3 -5 1 -18 10
-28 11 -14 14 -15 13 -4 -3 31 1 50 11 50 6 0 10 -8 10 -18 0 -11 9 -27 20
-37 21 -19 21 -19 15 21 -4 21 -2 50 5 64 10 24 10 24 6 -6 -3 -17 -1 -35 4
-40 5 -5 11 -26 15 -46 6 -33 5 -37 -17 -40 -20 -3 -24 -10 -29 -53 -4 -28 -2
-56 4 -63 5 -7 7 -15 4 -18 -10 -10 -25 31 -25 69 0 45 -6 54 -26 38 -12 -10
-16 -5 -26 24 -7 20 -19 39 -29 43 -9 3 -26 17 -38 31 l-22 25 -23 -49 c-13
-30 -22 -71 -23 -100 0 -49 -6 -58 -179 -305 -246 -351 -239 -341 -232 -347 8
-8 46 27 46 42 0 6 11 22 24 34 20 19 28 21 45 11 27 -14 17 -33 -12 -25 -19
5 -20 5 -4 -5 9 -6 17 -15 17 -20 0 -14 -28 -12 -32 2 -3 8 -12 4 -26 -10 -26
-26 -27 -32 -7 -32 8 0 15 4 15 10 0 11 53 3 90 -15 14 -6 33 -10 43 -8 11 3
17 -2 17 -13 0 -15 -7 -16 -57 -9 -32 4 -83 8 -115 9 l-56 1 -12 -40 c-6 -22
-19 -51 -28 -65 -23 -34 -22 -251 1 -370 38 -193 36 -187 63 -199 14 -6 30
-11 37 -11 7 0 44 -16 82 -35 77 -39 100 -43 91 -19 -3 8 1 29 10 46 10 19 12
33 6 37 -6 3 -9 29 -7 56 2 28 4 70 4 94 1 39 3 43 22 38 12 -3 22 0 26 9 6
17 -15 46 -28 38 -5 -3 -9 2 -9 10 0 9 5 16 10 16 6 0 10 -4 10 -9 0 -5 6 -11
13 -14 10 -4 14 6 15 39 0 24 -4 44 -9 44 -5 0 -9 -12 -9 -26 0 -22 -2 -25
-15 -14 -11 9 -12 16 -4 26 6 7 8 22 4 34 -4 11 -2 20 4 20 6 0 11 -7 11 -15
0 -8 5 -15 10 -15 13 0 13 27 0 35 -8 5 -7 11 0 20 7 8 8 20 4 26 -14 23 -24
128 -13 135 5 3 9 16 9 30 0 29 6 30 47 4 26 -15 38 -18 59 -10 21 8 25 8 21
-4 -4 -9 3 -16 18 -20 13 -3 30 -12 37 -19 31 -30 88 -69 88 -59 0 10 -83 84
-103 91 -6 2 -20 12 -30 22 -15 13 -25 16 -38 9 -12 -7 -29 -5 -54 6 -43 18
-65 13 -65 -15 0 -11 -4 -23 -10 -26 -5 -3 -10 -14 -10 -25 0 -10 -6 -20 -12
-23 -9 -3 -13 8 -13 36 0 35 -4 42 -25 48 -22 5 -23 7 -7 14 9 4 26 5 36 2 10
-2 25 -1 32 4 11 7 10 9 -3 9 -26 0 -30 16 -14 55 14 34 38 46 51 25 10 -16
23 -12 30 10 4 11 11 18 16 14 6 -3 17 0 25 7 8 6 18 9 22 5 4 -4 0 -11 -8
-16 -55 -32 -55 -34 2 -73 102 -70 144 -102 192 -147 52 -48 143 -166 171
-221 39 -74 78 -212 46 -160 -7 11 -10 11 -14 0 -5 -12 -7 -11 -16 1 -7 10 -6
17 2 22 9 6 9 8 0 8 -7 0 -13 9 -13 19 0 11 -5 23 -11 27 -6 3 -8 17 -4 31 3
14 2 22 -3 19 -6 -3 -29 20 -53 52 -42 56 -77 94 -112 121 -29 23 -19 3 22
-42 52 -56 131 -176 137 -207 2 -14 9 -39 14 -56 6 -17 13 -98 16 -180 8 -181
15 -236 32 -242 7 -2 10 2 7 10 -3 8 -1 25 4 39 6 15 11 18 12 9 5 -37 6 -46
8 -67 1 -17 11 -25 44 -34 23 -6 52 -16 64 -22 29 -13 37 -5 29 28 -5 20 -13
25 -36 25 -17 0 -30 5 -30 10 0 6 -5 10 -11 10 -6 0 -9 -7 -5 -15 3 -8 1 -15
-5 -15 -6 0 -9 8 -7 18 1 9 -1 23 -6 30 -11 19 1 27 18 13 17 -14 31 2 20 22
-5 8 -2 8 9 -2 9 -7 17 -22 17 -32 0 -11 7 -19 15 -19 12 0 13 4 6 18 -7 13
-7 22 0 29 8 8 8 17 0 31 -13 25 -42 145 -36 150 3 3 11 -1 20 -8 19 -15 28
-9 19 14 -3 9 -14 16 -23 16 -21 0 -34 22 -55 95 -10 33 -31 88 -47 121 -16
34 -29 64 -29 67 0 9 -69 125 -83 139 -7 7 -33 39 -57 72 -24 32 -80 86 -124
119 -99 76 -119 95 -110 109 4 7 3 8 -5 4 -15 -10 -53 3 -46 15 4 5 15 9 26 9
11 0 17 4 14 10 -9 14 23 1 63 -25 77 -52 272 -240 272 -262 0 -7 4 -13 10
-13 14 0 1 30 -31 72 -16 20 -29 42 -29 48 0 6 -4 9 -9 6 -5 -4 -34 18 -64 46
-29 29 -67 63 -83 75 -16 12 -40 31 -54 43 -14 12 -36 31 -50 42 -23 18 -23
21 -8 32 15 11 15 13 0 25 -39 28 21 0 71 -34 78 -53 90 -63 83 -73 -3 -5 2
-9 12 -8 9 0 21 -9 27 -22 5 -12 15 -20 21 -18 7 3 19 -3 27 -12 18 -21 107
-204 107 -222 0 -6 8 -24 18 -38 11 -15 31 -60 46 -100 33 -85 63 -109 115
-91 17 6 42 8 56 5 13 -3 26 -2 29 3 8 13 46 1 46 -14 0 -7 -10 -27 -23 -46
-26 -39 -57 -102 -57 -117 0 -13 81 -85 190 -167 203 -154 202 -153 216 -210
7 -27 8 -28 11 -7 3 12 8 22 12 22 15 0 29 -23 24 -39 -4 -13 -3 -14 5 -2 14
20 38 0 46 -39 3 -17 10 -30 15 -30 6 0 8 7 5 15 -10 25 8 17 48 -22 21 -20
41 -34 45 -30 11 12 -83 101 -211 200 -65 51 -155 121 -200 157 -45 36 -107
84 -139 108 -31 23 -57 46 -57 51 0 4 9 16 20 26 11 10 20 22 20 27 0 4 17 33
37 64 33 50 35 56 21 71 -14 14 -26 14 -93 4 -130 -19 -130 -19 -149 42 -10
28 -28 76 -42 105 -13 29 -24 56 -24 60 0 3 -54 115 -119 247 -114 229 -192
420 -226 550 -17 68 -20 119 -5 110 6 -3 10 -13 10 -22 0 -9 11 -39 24 -67 31
-67 40 -89 37 -100 -1 -4 7 -27 17 -50 11 -22 27 -63 37 -91 20 -54 45 -98 52
-91 3 3 -7 31 -23 63 -15 32 -35 89 -45 126 -10 37 -21 73 -26 80 -4 8 -1 7
10 -2 9 -7 17 -18 17 -24 0 -5 14 -40 31 -76 17 -36 35 -77 40 -90 15 -38 22
-16 9 26 -7 21 -28 71 -47 112 -41 90 -40 131 2 46 16 -33 49 -90 72 -126 24
-37 43 -72 43 -78 0 -6 5 -11 11 -11 14 0 2 38 -23 73 -11 16 -18 30 -16 32 8
9 37 -24 52 -58 17 -42 151 -244 193 -292 19 -22 21 -23 9 -5 -23 36 -56 98
-56 107 0 10 60 -62 85 -103 11 -18 39 -57 63 -88 23 -30 42 -63 42 -72 0 -10
3 -15 6 -11 9 9 44 -25 37 -36 -3 -6 -2 -7 4 -4 11 7 51 -31 52 -48 1 -5 8
-18 16 -28 11 -13 14 -29 10 -55 -4 -23 -3 -32 3 -24 6 9 25 -3 74 -50 98 -93
190 -215 271 -359 13 -24 34 -62 47 -84 12 -22 25 -42 29 -45 9 -7 66 -100 74
-123 3 -9 2 -17 -2 -17 -5 0 -11 7 -14 15 -9 21 -97 155 -126 191 -14 17 -35
42 -45 55 -95 119 -336 370 -348 363 -5 -3 42 -56 104 -118 158 -157 211 -220
300 -354 43 -64 81 -121 86 -127 4 -5 13 -23 20 -38 9 -20 17 -27 29 -23 18 7
53 -20 53 -40 0 -18 51 -92 69 -99 25 -10 50 6 81 51 33 48 46 54 53 27 4 -16
5 -16 6 0 0 11 9 31 20 45 27 39 161 291 161 304 0 3 23 53 50 111 28 58 50
110 50 116 0 6 14 36 31 68 17 31 24 52 16 45 -8 -7 -35 -54 -60 -105 -24 -50
-73 -150 -107 -220 -34 -71 -64 -126 -67 -124 -2 3 0 13 6 24 6 10 38 88 72
173 121 308 115 295 135 292 27 -4 104 -45 104 -55 0 -5 4 -6 10 -2 5 3 1 14
-10 25 -16 16 -20 35 -22 103 0 45 -2 101 -4 124 -2 24 1 45 6 48 4 3 8 -14 8
-37 -1 -24 4 -61 10 -83 7 -22 12 -59 12 -82 0 -23 5 -45 11 -49 9 -5 10 33 5
142 -4 82 -9 158 -12 169 -2 11 -1 14 2 7 3 -6 10 -10 15 -6 5 3 9 2 10 -3 8
-110 21 -204 26 -199 4 3 8 34 10 69 3 34 9 66 14 71 6 6 9 5 9 -4 0 -16 14
-4 16 13 0 7 2 23 3 37 4 48 18 -10 30 -129 l12 -114 -33 -28 c-18 -15 -39
-28 -45 -29 -7 0 -13 -5 -13 -10 0 -19 52 2 80 32 17 17 31 25 35 19 3 -6 11
-11 17 -11 6 0 6 6 -2 15 -7 9 -15 39 -17 68 -2 37 -1 48 7 37 5 -8 10 -22 10
-30 0 -9 14 -24 30 -33 27 -16 29 -21 18 -40 -18 -33 -14 -314 6 -345 13 -21
-1 -26 -25 -9 -11 9 -27 13 -35 10 -7 -3 -28 5 -45 18 l-32 23 -24 -28 c-12
-15 -23 -34 -23 -42 0 -8 -4 -14 -10 -14 -26 0 -5 67 37 120 2 2 9 -2 14 -10
9 -12 10 -11 5 4 -4 12 5 39 24 73 17 30 29 61 26 68 -3 8 -24 19 -48 26 -24
7 -47 16 -53 21 -14 12 -25 10 -25 -6 0 -14 29 -26 66 -26 75 0 30 -77 -265
-450 -76 -96 -148 -184 -160 -194 -24 -22 -27 -36 -7 -36 8 0 27 16 42 35 15
21 33 34 41 31 8 -4 13 2 13 16 0 25 47 91 60 83 4 -3 6 -14 3 -24 -3 -10 0
-22 6 -25 11 -7 15 11 14 63 0 14 10 36 23 50 20 21 24 23 24 8 0 -9 5 -17 10
-17 6 0 10 15 10 33 0 19 10 44 24 62 l24 30 -3 -28 c-2 -15 1 -27 6 -27 15 0
10 -27 -6 -34 -8 -3 -15 -12 -15 -21 0 -17 16 -20 25 -4 4 5 12 8 18 6 6 -2
46 21 90 50 43 29 81 53 84 53 2 0 25 14 49 31 45 31 68 33 44 4 -9 -11 -9
-15 -1 -15 7 0 9 -4 6 -10 -3 -5 -1 -10 4 -10 11 0 15 22 13 68 -2 40 16 23
22 -23 16 -102 22 -31 18 193 -2 130 -3 246 0 257 6 28 28 -63 35 -145 2 -36
9 -69 14 -74 10 -11 1 154 -13 209 -5 22 -12 50 -15 62 -9 40 17 25 36 -19 20
-47 41 -173 41 -243 0 -24 4 -46 9 -50 12 -7 24 12 16 25 -3 5 -8 51 -10 102
-3 51 -5 100 -6 108 -1 16 -7 34 -30 85 -7 17 -15 35 -18 40 -2 6 8 -1 22 -13
17 -17 27 -39 32 -71 8 -59 25 -90 25 -46 -1 90 -28 131 -217 323 -103 104
-113 117 -119 160 -7 52 -20 82 -34 82 -6 0 -10 -6 -10 -14 0 -8 -5 -18 -11
-22 -19 -11 1 56 22 77 25 25 37 25 15 0 -10 -11 -13 -22 -8 -25 6 -3 17 5 25
18 9 12 32 40 52 62 23 24 35 45 32 56 -3 10 -2 18 3 18 4 0 37 29 74 64 54
52 66 69 65 92 -1 16 5 48 13 71 17 48 16 47 -55 -9 -27 -21 -55 -38 -63 -38
-22 0 -9 15 40 46 26 17 57 49 75 79 28 45 31 60 31 128 0 43 5 86 12 96 10
17 5 27 -35 74 -29 34 -42 57 -35 59 14 5 18 50 5 59 -4 3 -4 17 2 30 10 26 8
71 -4 104 -21 61 -28 75 -41 86 -20 16 -94 22 -94 7 0 -21 -13 1 -16 27 -3 30
10 32 54 5 34 -21 44 -13 15 12 -23 20 -51 34 -85 42 -32 7 -37 -7 -11 -36 12
-13 14 -21 5 -30 -8 -8 -18 -3 -36 17 -14 15 -26 34 -26 41 0 13 -13 18 -73
29 -31 5 -41 2 -62 -20 -38 -37 -75 -32 -54 7 15 28 8 30 -38 14 -52 -18 -102
-63 -80 -72 9 -3 13 -12 10 -20 -3 -8 1 -14 11 -14 26 0 18 -17 -11 -23 -29
-6 -96 -66 -123 -108 -8 -13 -44 -52 -80 -87 -36 -35 -64 -69 -62 -77 1 -7 -6
-16 -17 -20 -10 -3 -22 -12 -25 -20 -3 -8 -12 -15 -19 -15 -8 0 -26 -12 -41
-26 -27 -28 -33 -26 -16 7 15 26 -11 26 -30 -1 -8 -11 -19 -20 -24 -20 -6 0
-5 5 2 12 21 21 14 41 -12 34 -48 -12 -35 12 22 41 99 51 201 123 216 151 8
15 23 36 35 46 12 11 21 26 21 34 0 12 3 12 15 2 12 -10 15 -9 15 8 0 20 46
58 66 54 7 -1 14 11 16 28 6 38 -34 77 -116 114 -71 32 -79 32 -117 4 -18 -14
-33 -19 -37 -13 -6 9 -53 11 -100 6 -19 -2 -111 -91 -128 -123 -8 -15 -14 -38
-14 -52 0 -16 -7 -27 -20 -31 -11 -3 -20 -11 -20 -17 0 -6 -7 -18 -15 -27 -8
-9 -24 -27 -37 -41 -13 -14 -22 -29 -20 -33 1 -5 -6 -11 -17 -14 -11 -3 -21
-17 -25 -35 -5 -25 -10 -29 -29 -24 -18 4 -33 -5 -69 -39 -35 -35 -47 -42 -52
-30 -3 8 -1 15 4 15 6 0 10 9 10 20 0 11 9 37 20 57 11 21 20 45 20 55 0 23
20 34 21 11 1 -19 17 33 24 81 5 28 59 132 73 138 4 2 20 22 36 46 16 23 33
42 37 42 5 0 9 9 9 20 0 11 16 34 35 51 19 18 35 37 35 44 0 13 74 55 96 55 8
0 25 11 38 25 13 14 28 25 35 25 6 0 11 4 11 9 0 9 92 7 108 -3 5 -3 15 1 21
8 9 11 20 12 44 5 39 -11 87 -12 87 -1 0 11 88 30 97 21 11 -10 45 -13 66 -6
38 15 47 16 52 6 4 -5 12 -6 18 -2 7 4 21 9 32 10 68 6 85 4 115 -11 39 -19
59 -21 42 -4 -7 7 -12 17 -12 22 0 6 5 5 12 -2 7 -7 19 -12 28 -12 9 0 25 -9
35 -20 10 -11 25 -20 33 -20 12 0 12 4 -2 24 -15 23 -15 25 6 32 17 5 30 -3
64 -42 52 -59 59 -45 9 17 -19 24 -35 51 -35 59 0 8 -18 33 -40 55 -22 22 -54
54 -71 72 -18 17 -43 34 -58 38 -14 3 -64 24 -111 45 -47 21 -116 46 -155 55
-38 10 -76 22 -83 28 -16 13 -277 18 -366 7z m144 -746 c0 -14 -21 -19 -33 -7
-9 9 13 34 24 27 5 -3 9 -12 9 -20z m630 -11 c35 -29 35 -30 12 -140 -7 -33
-6 -46 4 -54 8 -6 14 -17 14 -23 0 -20 -94 -76 -127 -76 -31 0 -183 -37 -264
-64 -24 -8 -66 -17 -94 -20 -27 -2 -60 -8 -72 -11 -13 -4 -23 -3 -23 3 0 5 11
13 25 16 22 6 24 9 15 26 -9 18 -8 20 17 20 22 0 25 -2 13 -10 -17 -11 -17
-11 23 -14 16 -1 31 2 33 6 3 4 16 8 29 8 13 0 30 7 39 15 8 8 22 12 30 9 19
-7 22 12 4 20 -10 5 -10 7 0 12 6 3 12 13 12 21 0 9 6 13 15 9 12 -4 14 0 9
19 -4 18 -2 25 8 25 9 0 18 21 27 61 12 60 54 119 84 119 7 0 28 11 47 25 46
32 81 31 120 -2z m65 -99 c-3 -24 -10 -46 -15 -49 -11 -7 -7 48 5 58 7 6 6 10
-1 13 -6 3 -9 16 -6 31 9 46 25 -3 17 -53z m83 17 c3 -8 -1 -12 -9 -9 -7 2
-15 10 -17 17 -3 8 1 12 9 9 7 -2 15 -10 17 -17z m-768 -16 c-29 -17 -50 -19
-50 -6 0 8 20 14 65 19 6 1 -1 -5 -15 -13z m-65 -5 c3 -5 -1 -10 -9 -10 -8 0
-18 5 -21 10 -3 6 1 10 9 10 8 0 18 -4 21 -10z m825 -10 c0 -5 -7 -10 -15 -10
-8 0 -15 5 -15 10 0 6 7 10 15 10 8 0 15 -4 15 -10z m-2014 -147 c-10 -10 -19
5 -10 18 6 11 8 11 12 0 2 -7 1 -15 -2 -18z m-74 -65 c-7 -7 -12 -8 -12 -2 0
14 12 26 19 19 2 -3 -1 -11 -7 -17z m1568 12 c0 -5 -8 -10 -17 -10 -15 0 -16
2 -3 10 19 12 20 12 20 0z m-53 -16 c-3 -3 -12 -4 -19 -1 -8 3 -5 6 6 6 11 1
17 -2 13 -5z m534 -30 c8 -8 19 -14 24 -14 5 0 17 -8 27 -17 16 -14 23 -15 38
-5 26 16 30 15 30 -4 0 -8 -5 -12 -11 -8 -6 3 -15 1 -19 -6 -6 -10 -14 -9 -37
5 -29 17 -36 17 -150 0 -66 -9 -150 -15 -187 -13 -37 3 -70 0 -73 -5 -3 -6 7
-8 26 -5 19 3 31 0 31 -7 0 -6 10 -11 23 -11 96 -1 115 -4 120 -23 3 -12 0
-18 -7 -15 -6 2 -12 -9 -13 -28 -1 -18 -5 -44 -8 -56 -4 -18 -3 -22 7 -16 8 5
6 -3 -4 -18 -10 -15 -15 -34 -12 -42 7 -19 -11 -21 -28 -3 -12 13 -58 11 -58
-2 0 -4 -11 -6 -25 -6 -14 1 -24 6 -23 11 2 5 13 8 26 6 12 -1 22 2 22 8 0 5
-7 10 -16 10 -9 0 -12 5 -8 11 5 9 -3 10 -30 5 -23 -4 -36 -3 -36 4 0 5 12 10
28 10 24 1 25 2 10 14 -22 16 -23 26 -4 26 7 0 16 -9 19 -20 3 -13 14 -20 28
-20 22 0 22 1 -9 29 -31 29 -41 51 -24 51 8 0 35 -24 60 -55 7 -8 17 -13 23
-10 15 10 10 21 -16 33 -29 13 -32 29 -7 35 12 3 11 5 -6 6 -28 1 -86 30 -78
38 3 4 -4 13 -17 22 -29 21 -84 24 -91 5 -3 -8 -15 -14 -26 -14 -22 0 -27 15
-7 23 6 3 -13 3 -43 0 -46 -5 -53 -3 -42 8 9 10 47 15 135 16 118 3 254 16
264 27 13 12 -12 26 -50 27 -40 1 -41 2 -12 9 45 12 217 0 236 -16z m-926 6
c3 -5 1 -10 -4 -10 -6 0 -11 5 -11 10 0 6 2 10 4 10 3 0 8 -4 11 -10z m-41 -9
c3 -5 -1 -12 -10 -15 -20 -8 -29 -1 -19 13 8 13 22 14 29 2z m302 -24 c4 -4
-9 -7 -29 -7 -19 0 -42 -3 -51 -6 -9 -3 -16 -1 -16 4 0 18 80 26 96 9z m-126
-12 c0 -8 -4 -15 -9 -15 -13 0 -22 16 -14 24 11 11 23 6 23 -9z m-743 -57 c-2
-13 -4 -5 -4 17 -1 22 1 32 4 23 2 -10 2 -28 0 -40z m153 1 c0 -5 -4 -9 -10
-9 -5 0 -10 7 -10 16 0 8 5 12 10 9 6 -3 10 -10 10 -16z m-652 -17 c2 -12 -1
-22 -7 -22 -6 0 -11 4 -11 9 0 5 -3 17 -7 27 -4 12 -2 15 8 12 8 -2 15 -14 17
-26z m1112 18 c0 -5 -5 -10 -11 -10 -5 0 -7 5 -4 10 3 6 8 10 11 10 2 0 4 -4
4 -10z m-491 -76 c-5 -25 -15 -51 -22 -59 -12 -11 -13 -8 -11 23 2 21 4 39 5
42 1 3 1 9 0 14 -4 19 9 35 22 30 11 -4 12 -15 6 -50z m411 46 c0 -5 -5 -10
-11 -10 -5 0 -7 5 -4 10 3 6 8 10 11 10 2 0 4 -4 4 -10z m1075 -20 c-3 -5 -10
-10 -16 -10 -5 0 -9 5 -9 10 0 6 7 10 16 10 8 0 12 -4 9 -10z m-442 -17 c-7
-2 -13 -11 -13 -19 0 -8 -4 -14 -10 -14 -5 0 -10 6 -10 14 0 14 15 24 35 24 6
0 4 -2 -2 -5z m-1136 -35 c-3 -7 -5 -2 -5 12 0 14 2 19 5 13 2 -7 2 -19 0 -25z
m-400 -8 c1 -17 -2 -30 -8 -30 -16 0 -22 29 -9 45 16 19 15 20 17 -15z m316
-37 c5 -47 1 -73 -12 -73 -4 0 -8 30 -9 66 -2 74 13 79 21 7z m1627 47 c0 -5
-4 -10 -10 -10 -5 0 -10 5 -10 10 0 6 5 10 10 10 6 0 10 -4 10 -10z m-2205
-30 c-4 -12 -1 -28 6 -36 6 -8 9 -17 6 -20 -10 -10 -28 36 -22 56 4 11 9 20
11 20 3 0 2 -9 -1 -20z m685 -10 c0 -5 -5 -10 -11 -10 -5 0 -7 5 -4 10 3 6 8
10 11 10 2 0 4 -4 4 -10z m-631 -34 c-3 -3 -11 5 -18 17 -13 21 -12 21 5 5 10
-10 16 -20 13 -22z m2121 25 c0 -5 -12 -17 -27 -27 -27 -17 -28 -17 -13 2 24
30 40 40 40 25z m-1540 -48 c0 -22 -2 -25 -10 -13 -13 20 -13 40 0 40 6 0 10
-12 10 -27z m100 -17 c0 -6 -7 -2 -15 8 -8 11 -15 25 -15 30 0 6 7 2 15 -8 8
-11 15 -25 15 -30z m-750 13 c0 -5 -4 -9 -10 -9 -5 0 -10 7 -10 16 0 8 5 12
10 9 6 -3 10 -10 10 -16z m213 -19 c-3 -12 -8 -19 -11 -16 -5 6 5 36 12 36 2
0 2 -9 -1 -20z m1912 10 c-3 -5 -11 -10 -16 -10 -6 0 -7 5 -4 10 3 6 11 10 16
10 6 0 7 -4 4 -10z m-85 -40 c-24 -15 -37 -11 -16 5 11 8 22 12 25 9 3 -3 -1
-9 -9 -14z m-1430 -31 c0 -12 7 -19 18 -19 15 0 20 -13 28 -71 7 -49 7 -73 -1
-79 -15 -13 -55 -1 -55 16 0 8 -4 14 -10 14 -5 0 -10 11 -10 25 0 16 -6 25
-15 25 -8 0 -15 5 -15 10 0 6 5 10 11 10 8 0 8 4 0 14 -8 10 -8 16 2 25 8 6
12 22 10 35 -4 21 -2 24 16 19 12 -3 21 -13 21 -24z m200 -48 c0 -19 -3 -21
-14 -12 -10 9 -15 8 -20 -4 -3 -8 -3 -22 1 -31 4 -12 0 -14 -22 -8 -20 5 -26
4 -21 -4 4 -6 -2 -19 -13 -28 -13 -12 -18 -26 -15 -43 2 -14 0 -39 -5 -56
l-10 -30 0 35 c0 19 -6 74 -12 121 -7 47 -9 94 -5 104 6 17 7 17 21 -1 13 -18
14 -18 20 -1 9 21 25 23 25 2 0 -8 5 -15 10 -15 6 0 10 6 10 13 0 7 6 19 13
26 10 10 14 7 24 -16 7 -15 12 -39 13 -52z m770 69 c0 -5 -4 -10 -10 -10 -5 0
-10 5 -10 10 0 6 5 10 10 10 6 0 10 -4 10 -10z m50 0 c0 -5 -5 -10 -11 -10 -5
0 -7 5 -4 10 3 6 8 10 11 10 2 0 4 -4 4 -10z m60 0 c0 -5 -7 -10 -16 -10 -8 0
-12 5 -9 10 3 6 10 10 16 10 5 0 9 -4 9 -10z m-1460 -48 c0 -21 2 -24 10 -12
9 13 12 13 21 -2 5 -10 17 -18 25 -18 8 0 13 -4 10 -9 -3 -5 1 -11 9 -15 8 -3
15 -12 15 -21 0 -15 25 -21 33 -7 2 4 3 2 1 -4 -1 -7 11 -27 27 -45 16 -18 29
-36 29 -39 0 -14 52 -30 76 -24 20 5 24 3 23 -17 0 -13 -3 -18 -6 -11 -7 17
-23 15 -23 -3 0 -8 8 -15 18 -15 9 0 29 -20 45 -45 16 -25 33 -45 38 -45 5 0
14 20 21 45 14 53 33 61 24 10 -7 -36 3 -45 23 -21 7 8 9 31 6 57 -5 42 -5 43
7 14 6 -16 18 -36 27 -42 15 -12 14 -14 -1 -27 -10 -7 -18 -20 -18 -29 0 -9
-5 -27 -11 -40 -9 -21 -7 -30 12 -56 13 -18 25 -28 27 -22 2 5 10 7 19 4 8 -3
19 0 23 8 7 10 11 7 20 -12 6 -13 45 -46 87 -74 233 -154 304 -199 363 -227
36 -17 66 -32 68 -34 2 -1 -4 -13 -12 -27 -13 -19 -86 -219 -86 -235 0 -2 7 3
15 12 8 8 15 20 15 27 0 7 11 -2 25 -21 14 -20 23 -41 19 -50 -3 -8 -8 -44
-10 -80 -2 -36 -15 -101 -29 -144 -14 -43 -25 -91 -25 -105 -1 -32 1 -34 -90
111 -145 231 -234 354 -326 448 -30 30 -40 46 -32 51 9 6 5 14 -12 27 -74 58
-184 190 -273 327 -14 22 -37 54 -52 70 -25 29 -26 29 -20 5 5 -21 4 -22 -5
-7 -6 9 -8 22 -5 27 10 16 -6 34 -17 19 -7 -10 -8 -9 -6 7 3 19 -21 64 -49 92
-7 7 -13 19 -13 26 0 7 -8 24 -18 37 -29 37 -97 163 -84 155 7 -4 14 3 18 19
8 31 24 23 24 -13z m246 -75 c3 -10 0 -25 -8 -34 -7 -9 -8 -14 -2 -10 14 8 38
-17 32 -33 -2 -7 -14 -3 -31 10 -15 12 -27 17 -27 11 0 -6 5 -11 10 -11 6 0
10 -12 10 -26 0 -26 -1 -26 -25 10 -19 28 -23 42 -15 54 5 9 10 12 10 5 0 -14
30 -6 30 9 0 5 -11 26 -25 46 -14 20 -25 41 -25 46 0 13 59 -56 66 -77z m-65
11 c5 -9 5 -19 1 -22 -9 -5 -25 21 -36 59 l-6 20 16 -20 c8 -11 20 -28 25 -37z
m-231 -3 c0 -8 -2 -15 -4 -15 -2 0 -6 7 -10 15 -3 8 -1 15 4 15 6 0 10 -7 10
-15z m-271 -37 c-6 -12 -23 -34 -37 -48 -26 -26 -25 -21 16 43 25 41 42 45 21
5z m61 -38 c0 -5 -5 -10 -11 -10 -5 0 -7 5 -4 10 3 6 8 10 11 10 2 0 4 -4 4
-10z m30 -71 c0 -14 -17 -10 -23 5 -4 10 -1 13 9 9 7 -3 14 -9 14 -14z m2107
-6 c-9 -9 -20 -14 -24 -10 -3 4 2 14 13 21 25 19 33 10 11 -11z m-2067 -8 c0
-11 -44 -65 -52 -65 -4 0 2 16 14 35 21 31 38 45 38 30z m51 -133 c8 -21 5
-20 -30 10 -22 18 -36 37 -33 43 7 11 9 17 11 43 1 15 26 -31 52 -96z m-301
89 c0 -5 -7 -12 -16 -15 -14 -5 -15 -4 -4 9 14 17 20 19 20 6z m135 -41 c-3
-5 -11 -10 -16 -10 -6 0 -7 5 -4 10 3 6 11 10 16 10 6 0 7 -4 4 -10z m33 -32
c-12 -18 -24 -26 -26 -20 -4 14 30 62 41 55 4 -2 -3 -18 -15 -35z m1055 -18
c-3 -12 -8 -19 -11 -16 -5 6 5 36 12 36 2 0 2 -9 -1 -20z m50 3 c-9 -26 -43
-68 -43 -53 0 12 38 70 45 70 3 0 1 -8 -2 -17z m106 -22 c-10 -29 -12 -30 -25
-14 -11 16 -10 20 9 35 28 21 30 19 16 -21z m-1439 25 c0 -3 -4 -8 -10 -11 -5
-3 -10 -1 -10 4 0 6 5 11 10 11 6 0 10 -2 10 -4z m1230 -18 c0 -6 -7 -8 -15
-4 -10 4 -15 -1 -15 -14 0 -11 -4 -20 -9 -20 -5 0 -11 -8 -13 -17 -3 -15 -4
-16 -10 -2 -3 8 0 29 7 46 11 25 18 30 34 26 12 -3 21 -10 21 -15z m-895 -16
c-3 -3 -11 0 -18 7 -9 10 -8 11 6 5 10 -3 15 -9 12 -12z m-112 -40 c-1 -4 3
-13 9 -19 17 -20 -20 -28 -41 -9 -10 9 -23 16 -29 16 -16 0 -15 11 4 38 l15
22 22 -21 c12 -11 21 -23 20 -27z m465 13 c-3 -3 -9 2 -12 12 -6 14 -5 15 5 6
7 -7 10 -15 7 -18z m689 1 c-9 -18 -15 -22 -24 -14 -9 7 -13 7 -13 -2 0 -7 -8
-19 -17 -26 -15 -12 -16 -15 -4 -23 13 -8 13 -12 1 -26 -8 -10 -19 -26 -25
-38 -12 -25 -35 -34 -35 -14 0 8 -7 17 -15 21 -20 7 -10 30 21 46 17 10 22 19
18 32 -3 10 0 18 7 18 6 0 19 8 28 19 14 16 32 24 63 30 3 0 1 -10 -5 -23z
m-1043 -28 c9 -12 19 -19 22 -15 4 4 13 -1 21 -11 14 -16 14 -16 8 3 -4 11 -9
29 -12 40 -4 17 -2 17 16 -5 11 -14 21 -29 21 -34 0 -5 6 -17 13 -25 14 -17
39 -71 33 -71 -2 0 -20 16 -40 35 -21 19 -41 35 -44 35 -4 0 -18 10 -32 23
-14 13 -33 26 -42 30 -10 3 -18 13 -18 22 0 20 32 4 54 -27z m21 32 c-3 -5
-11 -10 -16 -10 -6 0 -7 5 -4 10 3 6 11 10 16 10 6 0 7 -4 4 -10z m766 -38
c-6 -2 -11 -10 -11 -18 0 -8 -3 -14 -8 -14 -13 0 -42 40 -41 58 0 13 3 12 11
-5 13 -28 38 -30 38 -5 0 29 15 37 18 11 2 -13 -1 -25 -7 -27z m133 35 c3 3 6
-7 6 -24 0 -30 -24 -62 -37 -49 -3 3 -1 18 6 32 10 23 9 26 -4 21 -10 -5 -15
0 -15 14 0 16 3 18 19 10 10 -6 21 -7 25 -4z m366 -3 c0 -17 -32 -35 -52 -28
-21 6 -20 7 8 19 33 15 44 17 44 9z m52 -16 c-7 -7 -12 -8 -12 -2 0 6 3 14 7
17 3 4 9 5 12 2 2 -3 -1 -11 -7 -17z m-1722 3 c0 -12 -20 -25 -27 -18 -7 7 6
27 18 27 5 0 9 -4 9 -9z m1500 5 c0 -3 -4 -8 -10 -11 -5 -3 -10 -1 -10 4 0 6
5 11 10 11 6 0 10 -2 10 -4z m776 -8 c-2 -7 -8 -26 -14 -41 -7 -16 -12 -32
-12 -37 0 -4 -13 -49 -30 -100 -27 -82 -37 -100 -99 -168 -38 -42 -89 -102
-112 -132 l-42 -55 53 50 c30 28 59 55 65 60 6 6 20 23 30 38 10 15 20 26 22
23 4 -4 -36 -132 -57 -181 -5 -11 -25 -63 -45 -115 -47 -123 -71 -181 -105
-255 -15 -33 -31 -70 -34 -82 -14 -45 -29 -24 -55 77 -58 223 -62 266 -36 344
17 50 10 98 -27 184 -22 54 -22 62 -2 62 23 0 131 75 321 222 52 41 123 84
133 81 4 -1 16 7 25 17 21 23 24 24 21 8z m-2241 -8 c-3 -5 -11 -10 -16 -10
-6 0 -7 5 -4 10 3 6 11 10 16 10 6 0 7 -4 4 -10z m1539 -16 c10 -25 -1 -29
-14 -5 -6 12 -7 21 -1 21 5 0 12 -7 15 -16z m-1434 2 c0 -3 -4 -8 -10 -11 -5
-3 -10 -1 -10 4 0 6 5 11 10 11 6 0 10 -2 10 -4z m1073 -17 c-4 -12 0 -25 8
-29 7 -5 11 -12 7 -15 -3 -4 -18 1 -32 10 -21 14 -23 19 -13 36 16 26 37 25
30 -2z m251 -16 c-4 -12 -12 -19 -19 -17 -7 3 -16 1 -20 -5 -6 -11 -35 9 -35
25 0 5 5 3 12 -4 8 -8 17 -6 36 9 29 22 33 21 26 -8z m57 -6 c-13 -12 -20 -15
-15 -7 12 22 28 39 33 34 3 -3 -6 -15 -18 -27z m449 29 c0 -2 -8 -10 -17 -17
-16 -13 -17 -12 -4 4 13 16 21 21 21 13z m-1915 -20 c7 3 16 0 21 -7 5 -9 2
-10 -9 -6 -21 8 -22 -6 -3 -22 11 -10 16 -8 24 6 13 22 25 13 16 -11 -5 -14
-14 -16 -48 -11 -49 9 -58 13 -50 26 3 5 9 7 14 4 4 -3 6 5 3 17 -5 18 -3 21
7 11 7 -6 18 -9 25 -7z m120 -7 c-5 -15 -4 -19 4 -15 11 7 16 -6 5 -17 -9 -9
-34 4 -34 17 0 11 19 36 28 36 2 0 0 -10 -3 -21z m1456 -19 c5 0 9 -5 9 -12 0
-9 -3 -9 -12 0 -18 18 -41 15 -34 -4 3 -8 2 -12 -4 -9 -5 3 -22 -5 -37 -19
-15 -14 -29 -23 -32 -21 -2 3 18 25 45 49 33 30 50 40 52 30 2 -8 8 -14 13
-14z m716 -12 c-3 -7 -5 -2 -5 12 0 14 2 19 5 13 2 -7 2 -19 0 -25z m-817 -8
c-6 -11 -16 -20 -22 -20 -6 0 -3 9 7 20 10 11 20 20 22 20 2 0 -1 -9 -7 -20z
m874 -6 c3 -8 2 -12 -4 -9 -6 3 -10 10 -10 16 0 14 7 11 14 -7z m-360 -9 c-4
-8 -11 -15 -16 -15 -6 0 -5 6 2 15 7 8 14 15 16 15 2 0 1 -7 -2 -15z m-424
-20 c-7 -8 -17 -15 -22 -15 -6 0 -5 7 2 15 7 8 17 15 22 15 6 0 5 -7 -2 -15z
m43 -17 c-11 -13 -24 -34 -27 -48 l-7 -25 25 28 c21 23 26 25 26 10 0 -20 -39
-75 -40 -55 0 6 -8 12 -19 12 -18 0 -18 2 2 43 21 42 34 57 51 57 5 0 0 -10
-11 -22z m281 -23 c-4 -8 -14 -15 -23 -15 -14 1 -13 3 3 15 25 19 27 19 20 0z
m510 0 c-4 -8 -10 -12 -15 -9 -11 6 -2 24 11 24 5 0 7 -7 4 -15z m-855 -2 c0
-5 -4 -17 -9 -28 -8 -18 -9 -17 -9 8 -1 15 4 27 9 27 6 0 10 -3 9 -7z m-1699
-13 c0 -5 7 -7 16 -3 12 4 15 2 12 -8 -3 -8 -15 -13 -27 -12 -11 2 -21 -2 -21
-7 0 -20 -2 -25 -13 -40 -6 -8 1 -4 16 9 22 20 27 22 27 8 0 -9 -4 -17 -10
-17 -5 0 -9 -8 -8 -17 3 -42 -3 -74 -12 -68 -12 8 -9 37 5 47 5 4 6 11 1 15
-5 4 -11 3 -13 -3 -2 -6 -10 -20 -18 -30 -13 -17 -14 -16 -15 22 0 37 8 63 33
102 10 14 27 16 27 2z m80 0 c0 -5 -5 -10 -11 -10 -5 0 -7 5 -4 10 3 6 8 10
11 10 2 0 4 -4 4 -10z m28 -31 c-3 -8 -7 -3 -11 10 -4 17 -3 21 5 13 5 -5 8
-16 6 -23z m1539 -5 c2 -35 1 -36 -13 -16 -8 11 -11 27 -8 36 10 27 19 18 21
-20z m954 19 c8 -10 9 -14 2 -10 -6 4 -14 3 -17 -2 -4 -5 -2 -13 4 -16 8 -5 7
-11 -1 -21 -14 -17 -33 -19 -22 -1 7 12 9 17 11 50 2 21 6 21 23 0z m-68 -13
c-3 -11 -9 -17 -15 -14 -5 3 -4 12 3 20 16 19 18 18 12 -6z m-2461 -8 c-7 -2
-12 -18 -12 -34 0 -35 -8 -33 -15 2 -5 27 12 53 28 43 8 -5 7 -8 -1 -11z
m1888 -12 c0 -5 -4 -10 -10 -10 -5 0 -10 5 -10 10 0 6 5 10 10 10 6 0 10 -4
10 -10z m684 -6 c10 -25 -1 -29 -14 -5 -6 12 -7 21 -1 21 5 0 12 -7 15 -16z
m-754 -8 c0 -3 -4 -8 -10 -11 -5 -3 -10 -1 -10 4 0 6 5 11 10 11 6 0 10 -2 10
-4z m635 -6 c3 -5 1 -10 -4 -10 -6 0 -11 5 -11 10 0 6 2 10 4 10 3 0 8 -4 11
-10z m-2359 -17 c21 -28 16 -39 -6 -15 -11 12 -20 24 -20 27 0 11 13 4 26 -12z
m-25 -76 c-13 -13 -15 1 -4 30 7 17 8 17 11 -1 2 -10 -1 -23 -7 -29z m2410 10
c-8 -8 -14 -7 -23 2 -11 11 -10 13 0 7 7 -4 15 0 19 10 5 12 8 14 11 5 2 -7
-1 -18 -7 -24z m-2514 -9 c-3 -8 -6 -5 -6 6 -1 11 2 17 5 13 3 -3 4 -12 1 -19z
m2565 -17 c-22 -22 -27 -19 -12 8 6 12 15 19 20 16 5 -3 2 -14 -8 -24z m61 1
c-3 -12 -9 -19 -14 -16 -5 3 -4 14 2 25 13 26 20 21 12 -9z m-356 -109 c5 -55
-7 -70 -27 -33 -8 15 -9 90 -1 120 5 18 25 -43 28 -87z m-60 -5 c-3 -8 -6 -5
-6 6 -1 11 2 17 5 13 3 -3 4 -12 1 -19z m388 -48 c4 -6 -1 -24 -9 -41 -10 -20
-12 -37 -7 -48 11 -21 8 -56 -4 -56 -6 0 -9 7 -8 15 2 8 -2 34 -7 57 -8 32 -7
48 2 63 14 22 24 25 33 10z m-765 -40 c0 -5 -5 -10 -11 -10 -5 0 -7 5 -4 10 3
6 8 10 11 10 2 0 4 -4 4 -10z m-1713 -32 c28 4 32 -13 29 -125 -3 -90 -16
-130 -38 -117 -6 4 -14 0 -19 -7 -6 -10 -11 -11 -19 -3 -17 17 5 65 26 57 11
-4 15 -1 13 11 -2 9 -8 16 -14 14 -11 -3 -22 40 -24 95 -1 35 1 37 24 31 19
-5 25 -2 25 10 0 10 -6 13 -16 9 -9 -3 -20 0 -25 8 -13 20 -11 31 4 22 6 -4
22 -6 34 -5z m-115 -30 c-9 -9 -12 -7 -12 12 0 19 3 21 12 12 9 -9 9 -15 0
-24z m37 -28 c0 -10 -3 -8 -9 5 -12 27 -12 43 0 25 5 -8 9 -22 9 -30z m-107
-12 c-9 -9 -12 -7 -12 12 0 19 3 21 12 12 9 -9 9 -15 0 -24z m69 -25 c-9 -16
-10 -14 -11 12 0 21 3 26 11 18 8 -8 8 -16 0 -30z m-55 -31 c-4 -3 -12 0 -19
8 -10 10 -9 11 2 5 11 -6 13 -4 8 7 -3 9 -3 19 1 23 4 4 8 -3 10 -15 2 -12 1
-24 -2 -28z m94 24 c0 -20 -17 -29 -26 -15 -5 8 -3 9 6 4 10 -6 12 -4 7 8 -3
10 -2 17 3 17 6 0 10 -6 10 -14z m2542 -66 c2 -44 -1 -69 -7 -67 -12 4 -17
137 -5 137 5 0 10 -32 12 -70z m-2636 -38 c-12 -11 -17 7 -9 34 l8 29 3 -28
c2 -16 1 -31 -2 -35z m64 34 c0 -11 -19 -15 -25 -6 -3 5 1 10 9 10 9 0 16 -2
16 -4z m25 -45 c-6 -21 -25 -29 -25 -11 0 6 -10 10 -22 11 -22 0 -22 1 -3 8
11 5 26 6 33 4 6 -3 12 1 12 8 0 7 3 10 6 6 3 -3 3 -15 -1 -26z m713 -54 c9
-10 22 -15 29 -13 7 3 15 0 19 -6 9 -14 24 -75 28 -117 l4 -33 -23 38 -23 39
-4 -30 -4 -30 -13 30 c-7 16 -10 40 -8 52 4 24 -8 32 -16 11 -9 -27 -19 3 -21
62 -2 64 7 93 12 43 2 -15 11 -36 20 -46z m1573 -64 c-30 -62 -43 -68 -37 -15
3 20 5 40 5 43 1 4 11 19 23 34 20 26 22 26 28 9 5 -12 -3 -39 -19 -71z
m-1591 -55 c0 -39 -9 -32 -15 11 -2 18 0 29 6 26 5 -4 9 -20 9 -37z m1236 -74
c-9 -8 -16 -21 -16 -27 -1 -16 -69 -125 -70 -110 0 15 65 149 82 171 12 13 13
13 16 -1 2 -10 -4 -24 -12 -33z"/>
<path d="M4136 4054 c-31 -32 -35 -64 -6 -64 12 0 17 -5 14 -13 -3 -8 2 -20
11 -27 33 -28 101 42 84 87 -8 23 -38 43 -62 43 -8 0 -26 -12 -41 -26z"/>
<path d="M4062 4010 c-15 -25 -15 -30 2 -30 13 0 26 20 26 41 0 16 -15 10 -28
-11z"/>
<path d="M4075 3460 c-3 -5 -1 -10 4 -10 6 0 11 5 11 10 0 6 -2 10 -4 10 -3 0
-8 -4 -11 -10z"/>
<path d="M4115 3460 c3 -5 8 -10 11 -10 2 0 4 5 4 10 0 6 -5 10 -11 10 -5 0
-7 -4 -4 -10z"/>
<path d="M2745 3340 c3 -5 8 -10 11 -10 2 0 4 5 4 10 0 6 -5 10 -11 10 -5 0
-7 -4 -4 -10z"/>
<path d="M2770 3250 c0 -5 5 -10 11 -10 5 0 7 5 4 10 -3 6 -8 10 -11 10 -2 0
-4 -4 -4 -10z"/>
<path d="M2860 3263 c0 -4 5 -15 10 -23 8 -13 10 -13 10 2 0 9 -4 20 -10 23
-5 3 -10 3 -10 -2z"/>
<path d="M2770 2977 c0 -7 9 -18 19 -24 16 -10 18 -9 14 7 -6 21 -33 36 -33
17z"/>
<path d="M2925 2500 c28 -31 125 -103 130 -98 5 4 -62 65 -114 105 -25 20 -36
15 -16 -7z"/>
<path d="M3070 2386 c0 -2 17 -16 38 -31 l37 -28 -29 31 c-26 28 -46 40 -46
28z"/>
<path d="M3322 2240 c-7 -11 -8 -20 -2 -20 5 0 14 9 20 20 6 11 7 20 3 20 -5
0 -14 -9 -21 -20z"/>
<path d="M2070 2891 c0 -12 6 -21 15 -21 8 0 15 4 15 9 0 5 -7 14 -15 21 -13
10 -15 9 -15 -9z"/>
<path d="M3150 2790 c0 -11 7 -20 15 -20 17 0 18 2 9 24 -9 23 -24 20 -24 -4z"/>
<path d="M3775 2319 c-4 -6 -5 -12 -2 -15 2 -3 7 2 10 11 7 17 1 20 -8 4z"/>
<path d="M1878 2203 c7 -3 16 -2 19 1 4 3 -2 6 -13 5 -11 0 -14 -3 -6 -6z"/>
<path d="M1883 2165 c-3 -9 -3 -18 -1 -21 3 -3 8 4 11 16 6 23 -1 27 -10 5z"/>
<path d="M5640 4531 c-19 -9 -34 -23 -32 -29 1 -7 3 -17 5 -23 2 -13 -41 -38
-176 -99 -90 -40 -100 -43 -108 -27 -6 9 -16 17 -24 17 -24 0 -65 -23 -65 -36
0 -7 41 -97 90 -200 50 -103 90 -191 90 -195 0 -14 13 -11 81 22 92 45 92 44
69 90 -23 44 -24 45 -64 24 -16 -9 -33 -12 -37 -8 -11 12 -69 125 -69 134 0 8
85 49 101 49 9 0 59 -103 59 -120 0 -6 4 -10 8 -10 13 0 71 30 77 40 3 5 -8
33 -25 63 -16 30 -30 59 -30 64 0 5 20 19 45 31 l45 22 30 -60 c35 -69 37 -86
11 -95 -37 -11 -43 -30 -24 -69 9 -20 20 -36 23 -36 8 0 142 60 149 66 4 3 2
7 -94 209 -34 72 -68 145 -76 163 -16 37 -13 36 -59 13z"/>
<path d="M646 4447 c-136 -287 -156 -330 -156 -334 0 -4 145 -73 154 -73 7 0
36 61 36 75 0 7 -13 18 -30 25 -32 13 -38 35 -17 65 13 17 21 14 141 -44 71
-33 133 -61 138 -61 6 0 8 -14 4 -35 -7 -34 -5 -36 30 -51 20 -8 37 -14 39
-12 2 2 27 52 55 112 l52 109 -23 18 c-29 22 -69 25 -69 5 0 -32 -27 -26 -156
35 -136 65 -148 76 -121 113 13 17 15 17 45 2 17 -9 33 -16 35 -16 3 0 14 18
25 40 l20 41 -22 14 c-11 8 -47 25 -79 39 l-57 26 -44 -93z"/>
<path d="M4015 4190 c-3 -5 -1 -10 4 -10 6 0 11 5 11 10 0 6 -2 10 -4 10 -3 0
-8 -4 -11 -10z"/>
<path d="M4393 4177 c-24 -5 -43 -14 -43 -19 0 -5 15 -29 34 -54 19 -24 37
-59 40 -78 4 -18 19 -60 35 -92 63 -130 81 -187 72 -227 -5 -21 -14 -44 -20
-51 -6 -7 -12 -47 -12 -87 -1 -46 -7 -83 -16 -97 -8 -13 -12 -26 -9 -29 9 -9
36 18 57 56 10 20 23 43 28 51 23 43 30 61 36 96 11 67 26 104 41 104 17 0 17
2 3 60 -6 25 -12 55 -14 68 -1 12 -9 30 -18 40 -11 12 -14 34 -12 75 1 32 -2
60 -6 63 -5 3 -9 16 -9 28 0 30 -39 71 -85 90 -42 18 -43 18 -102 3z m137
-114 c0 -7 -3 -13 -6 -13 -11 0 -42 45 -37 53 7 11 43 -22 43 -40z m-50 -8 c0
-28 -24 -34 -34 -9 -8 20 1 34 20 34 8 0 14 -10 14 -25z"/>
<path d="M3201 4090 c0 -8 -14 -29 -31 -46 -37 -41 -29 -50 11 -13 21 20 29
35 26 51 -2 13 -5 16 -6 8z"/>
<path d="M512 3401 c-12 -27 -22 -56 -22 -64 0 -23 -9 -26 -83 -29 -37 -1 -67
-5 -67 -8 0 -3 25 -25 55 -49 40 -32 54 -49 49 -60 -10 -25 -34 -103 -34 -113
0 -15 21 -8 76 27 30 19 57 35 59 35 3 0 28 -16 55 -35 56 -40 60 -41 60 -20
0 8 -6 15 -14 15 -7 0 -19 7 -26 15 -7 8 -16 12 -21 9 -5 -3 -9 -1 -9 5 0 21
19 20 34 -1 23 -32 30 -15 17 38 -7 25 -11 47 -9 49 53 37 99 75 99 82 -1 4
-31 10 -67 13 l-67 5 -26 68 c-14 37 -28 67 -31 67 -3 0 -15 -22 -28 -49z m27
-37 c-9 -11 -9 -18 -1 -26 9 -9 12 -9 12 0 0 7 5 12 10 12 6 0 10 -9 10 -20 0
-11 8 -23 18 -27 9 -3 25 -12 34 -20 12 -11 21 -12 37 -4 21 12 48 15 39 5 -4
-3 -9 -4 -11 -2 -3 2 -19 -12 -37 -30 -27 -29 -35 -32 -58 -24 -15 5 -31 17
-37 28 -6 11 -18 18 -27 16 -19 -4 -25 -22 -7 -22 13 0 40 -26 38 -37 -3 -19
2 -23 20 -14 15 9 22 6 35 -14 9 -14 12 -25 6 -25 -5 0 -10 5 -10 10 0 6 -9 1
-20 -10 -17 -17 -23 -18 -40 -8 -16 10 -22 9 -38 -9 -21 -25 -72 -42 -72 -24
0 6 3 11 8 11 4 0 8 14 9 31 1 17 7 37 12 43 7 8 -1 19 -29 36 -40 25 -45 31
-34 43 5 5 12 1 68 -50 14 -13 30 -23 36 -23 5 0 10 -7 10 -15 0 -8 7 -15 15
-15 8 0 15 5 15 10 0 13 -37 50 -50 50 -5 0 -10 9 -10 20 0 11 -4 20 -10 20
-19 0 -10 17 15 30 18 9 23 19 19 32 -3 10 -1 18 5 18 6 0 11 8 11 18 0 25 14
38 18 17 2 -9 -2 -23 -9 -31z"/>
<path d="M526 3305 c-3 -9 -2 -14 3 -10 5 3 17 -2 26 -11 9 -9 18 -14 20 -12
3 3 -6 15 -19 27 -20 19 -24 20 -30 6z"/>
<path d="M595 3261 c-6 -11 9 -23 19 -14 9 9 7 23 -3 23 -6 0 -12 -4 -16 -9z"/>
<path d="M476 3192 c-3 -5 0 -13 6 -15 10 -4 9 -8 -2 -16 -8 -5 -11 -13 -7
-17 4 -4 14 -1 22 7 13 13 13 18 2 33 -9 12 -16 15 -21 8z"/>
<path d="M570 3179 c0 -5 -4 -7 -10 -4 -5 3 -10 1 -10 -4 0 -6 7 -11 15 -11 8
0 15 7 15 15 0 8 -2 15 -5 15 -3 0 -5 -5 -5 -11z"/>
<path d="M5770 3384 c-14 -36 -28 -68 -31 -70 -3 -2 -34 -4 -68 -6 -33 -1 -61
-6 -61 -11 0 -11 51 -55 72 -62 26 -9 28 -30 8 -102 -10 -37 -17 -69 -15 -71
1 -2 28 15 59 37 48 33 54 41 40 49 -11 6 -13 12 -6 16 13 7 5 36 -9 36 -5 0
-14 -10 -18 -22 -7 -17 -5 -26 7 -35 14 -12 14 -13 -1 -13 -9 0 -17 -4 -17
-10 0 -5 -3 -10 -7 -10 -5 0 -8 31 -8 70 0 56 3 69 15 67 11 -1 14 6 12 24 -1
16 6 33 18 44 11 10 20 27 20 38 0 13 5 17 15 13 13 -4 13 -2 5 14 -12 23 -13
30 -1 30 17 0 20 -44 4 -62 -9 -10 -13 -21 -9 -25 4 -4 11 -1 16 7 5 8 10 12
12 10 17 -27 28 -53 28 -67 1 -14 4 -12 15 7 14 25 14 25 15 3 0 -13 5 -23 10
-23 6 0 10 -7 10 -16 0 -10 -6 -14 -15 -11 -16 7 -29 -8 -20 -23 7 -11 33 0
57 23 7 7 28 23 46 36 18 13 31 25 29 28 -3 2 -36 8 -73 11 l-67 7 -19 50
c-10 28 -21 58 -24 68 -10 29 -19 20 -44 -49z m-53 -113 c-7 -2 -15 -8 -18
-13 -4 -6 -15 -4 -28 3 -28 18 -27 30 4 25 13 -3 28 0 31 6 4 6 9 5 15 -3 5
-9 4 -16 -4 -18z m227 4 c-4 -8 -12 -15 -20 -15 -8 0 -14 7 -14 15 0 8 9 15
20 15 13 0 18 -5 14 -15z"/>
<path d="M5770 3300 c-12 -7 -12 -12 4 -29 11 -12 25 -21 33 -21 12 0 17 -12
14 -36 -1 -6 10 -19 24 -28 23 -15 25 -15 25 -1 0 9 -4 14 -9 11 -12 -8 -22
20 -15 39 4 8 1 15 -6 15 -7 0 -10 8 -7 20 3 11 1 23 -4 26 -5 3 -9 -4 -9 -15
0 -22 -7 -26 -28 -13 -7 5 -10 16 -6 25 7 19 5 20 -16 7z"/>
<path d="M5756 3234 c-4 -9 -4 -19 -1 -22 2 -3 7 3 11 12 4 9 4 19 1 22 -2 3
-7 -3 -11 -12z"/>
<path d="M5790 3218 c0 -10 6 -18 13 -19 6 0 3 -4 -8 -9 l-20 -9 20 0 c16 -1
17 -3 5 -11 -10 -6 -11 -12 -5 -19 17 -16 128 -91 131 -88 4 4 -23 114 -32
128 -5 9 -10 6 -16 -10 -6 -17 -14 -22 -28 -18 -11 3 -20 1 -20 -4 0 -5 -5 -9
-10 -9 -6 0 -8 10 -5 23 3 12 -1 31 -9 42 -14 18 -15 18 -16 3z m100 -73 c-9
-10 -9 -15 -1 -15 6 0 11 -7 11 -15 0 -17 -17 -11 -55 20 -20 16 -20 16 3 10
13 -4 22 -2 22 4 0 6 7 11 16 11 14 0 14 -3 4 -15z"/>
<path d="M2456 2980 c22 -43 38 -48 17 -6 -9 20 -20 36 -24 36 -4 0 -1 -13 7
-30z"/>
<path d="M2370 2990 c0 -5 5 -10 11 -10 5 0 7 5 4 10 -3 6 -8 10 -11 10 -2 0
-4 -4 -4 -10z"/>
<path d="M2490 2921 c0 -5 7 -15 17 -22 15 -13 15 -12 4 9 -12 23 -21 28 -21
13z"/>
<path d="M2370 2870 c0 -5 5 -10 11 -10 5 0 7 5 4 10 -3 6 -8 10 -11 10 -2 0
-4 -4 -4 -10z"/>
<path d="M2440 2860 c0 -8 16 -42 34 -75 19 -33 62 -114 97 -180 34 -65 64
-114 67 -107 2 6 -25 67 -61 134 -104 199 -137 254 -137 228z"/>
<path d="M1980 2740 c0 -5 5 -10 11 -10 5 0 7 5 4 10 -3 6 -8 10 -11 10 -2 0
-4 -4 -4 -10z"/>
<path d="M2590 2738 c0 -7 28 -61 61 -118 85 -145 90 -152 96 -146 5 5 -12 35
-109 199 -15 26 -28 51 -28 57 0 5 -4 12 -10 15 -5 3 -10 0 -10 -7z"/>
<path d="M2040 2690 c0 -5 5 -10 11 -10 5 0 7 5 4 10 -3 6 -8 10 -11 10 -2 0
-4 -4 -4 -10z"/>
<path d="M2366 2671 c-4 -7 -5 -15 -2 -18 9 -9 19 4 14 18 -4 11 -6 11 -12 0z"/>
<path d="M2466 2667 c3 -10 9 -15 12 -12 3 3 0 11 -7 18 -10 9 -11 8 -5 -6z"/>
<path d="M2077 2592 c-18 -43 -35 -118 -42 -182 -2 -25 -5 -45 -5 -45 -1 0 -3
-29 -5 -64 -2 -35 -6 -70 -9 -78 -3 -8 -1 -23 4 -33 7 -13 7 -21 0 -25 -15 -9
-12 -45 4 -45 8 0 14 10 14 23 0 12 2 40 5 62 2 22 12 112 22 200 10 88 23
163 29 167 6 4 7 10 3 14 -4 4 -2 13 4 20 6 7 6 15 1 18 -5 3 -16 -11 -25 -32z"/>
<path d="M2490 2611 c0 -6 4 -13 10 -16 6 -3 7 1 4 9 -7 18 -14 21 -14 7z"/>
<path d="M2159 2578 c22 -21 29 -34 21 -42 -5 -5 -10 -14 -10 -20 0 -5 9 -1
19 10 18 19 18 20 -12 52 -17 17 -35 32 -41 32 -5 0 5 -14 23 -32z"/>
<path d="M5765 2593 c-35 -9 -65 -45 -82 -100 -9 -29 -22 -53 -29 -53 -26 0
-44 13 -44 31 0 10 -7 20 -15 21 -8 0 -20 1 -26 2 -10 1 -48 -108 -49 -141 0
-18 33 -21 52 -5 14 12 25 11 80 -3 135 -34 137 -35 132 -50 -6 -16 35 -38 48
-26 12 11 58 189 58 226 0 51 -13 70 -60 89 -22 9 -41 15 -43 15 -1 -1 -11 -3
-22 -6z m59 -151 c-10 -40 -19 -45 -59 -32 -34 11 -37 15 -31 43 3 16 14 36
23 42 15 11 22 10 45 -7 23 -16 27 -24 22 -46z"/>
<path d="M2025 2580 c-3 -5 -1 -10 4 -10 6 0 11 5 11 10 0 6 -2 10 -4 10 -3 0
-8 -4 -11 -10z"/>
<path d="M2760 2581 c0 -5 4 -11 9 -13 5 -1 23 -32 41 -68 18 -36 35 -60 37
-54 4 12 -68 144 -79 144 -5 0 -8 -4 -8 -9z"/>
<path d="M772 2569 c-13 -5 -22 -15 -20 -25 2 -12 -18 -23 -82 -45 -98 -33
-116 -35 -124 -14 -4 12 -10 13 -31 3 -15 -7 -24 -17 -21 -25 3 -8 13 -38 21
-68 9 -30 20 -57 25 -60 13 -8 52 14 45 25 -11 18 16 20 43 3 15 -10 44 -28
65 -38 20 -11 37 -22 37 -26 0 -17 -105 -45 -114 -30 -8 13 -26 14 -44 2 -20
-12 25 -154 46 -146 7 3 18 5 23 5 5 0 9 8 9 19 0 20 13 27 128 63 67 20 75
21 83 6 9 -17 49 -14 49 4 0 19 -32 123 -42 135 -13 17 -54 0 -50 -21 2 -9 -1
-16 -6 -16 -14 0 -132 72 -132 81 0 4 23 14 52 23 43 12 53 13 62 1 16 -20 60
-1 51 23 -4 9 -13 37 -21 62 -19 63 -25 69 -52 59z"/>
<path d="M2006 2552 c-3 -6 -2 -13 3 -17 6 -3 8 -13 5 -23 -5 -16 -5 -16 6 1
7 11 8 23 2 33 -6 11 -12 13 -16 6z"/>
<path d="M2760 2425 c0 -8 4 -15 10 -15 5 0 7 7 4 15 -4 8 -8 15 -10 15 -2 0
-4 -7 -4 -15z"/>
<path d="M2145 2377 c-4 -28 -9 -59 -10 -67 -13 -84 -15 -123 -5 -108 13 21
39 217 30 223 -4 3 -11 -19 -15 -48z"/>
<path d="M2850 2420 c0 -5 5 -10 11 -10 5 0 7 5 4 10 -3 6 -8 10 -11 10 -2 0
-4 -4 -4 -10z"/>
<path d="M4201 2414 c0 -11 3 -14 6 -6 3 7 2 16 -1 19 -3 4 -6 -2 -5 -13z"/>
<path d="M2865 2390 c3 -5 10 -10 16 -10 5 0 9 5 9 10 0 6 -7 10 -16 10 -8 0
-12 -4 -9 -10z"/>
<path d="M2780 2387 c0 -16 33 -87 41 -87 5 0 3 12 -3 28 -14 32 -38 70 -38
59z"/>
<path d="M2245 2361 c-3 -5 -1 -12 5 -16 5 -3 10 1 10 9 0 18 -6 21 -15 7z"/>
<path d="M2410 2361 c0 -5 5 -13 10 -16 6 -3 10 -2 10 4 0 5 -4 13 -10 16 -5
3 -10 2 -10 -4z"/>
<path d="M4537 2313 c2 -27 7 -73 10 -103 4 -30 5 -63 4 -72 -1 -10 3 -18 9
-18 12 0 11 23 -6 183 -8 68 -23 78 -17 10z"/>
<path d="M4265 2340 c-12 -19 -14 -70 -3 -70 6 0 8 -9 5 -20 -3 -11 -1 -20 4
-20 5 0 9 27 9 60 0 60 -3 69 -15 50z"/>
<path d="M2242 2270 c0 -14 2 -19 5 -12 2 6 2 18 0 25 -3 6 -5 1 -5 -13z"/>
<path d="M4065 2280 c3 -5 8 -10 11 -10 2 0 4 5 4 10 0 6 -5 10 -11 10 -5 0
-7 -4 -4 -10z"/>
<path d="M5465 2218 c-10 -24 -38 -87 -62 -142 -24 -54 -43 -100 -41 -101 2
-1 23 -12 48 -24 42 -20 46 -20 57 -4 18 24 16 41 -7 48 -21 7 -25 22 -11 43
7 11 28 5 105 -29 79 -34 95 -45 91 -60 -4 -12 1 -22 15 -29 26 -14 40 1 66
70 9 25 21 51 26 57 7 9 2 16 -16 24 -22 11 -28 10 -39 -6 -11 -14 -17 -15
-33 -6 -10 6 -50 24 -89 40 -58 25 -70 33 -70 53 0 23 13 27 46 14 11 -5 19 1
28 20 6 15 10 28 9 29 -9 7 -88 45 -96 45 -4 0 -16 -19 -27 -42z"/>
<path d="M1971 2224 c0 -11 3 -14 6 -6 3 7 2 16 -1 19 -3 4 -6 -2 -5 -13z"/>
<path d="M2740 2210 c0 -19 3 -21 12 -12 9 9 9 15 0 24 -9 9 -12 7 -12 -12z"/>
<path d="M2830 2221 c0 -5 7 -12 16 -15 24 -9 27 -7 10 9 -17 17 -26 19 -26 6z"/>
<path d="M4037 2223 c-4 -3 -7 -11 -7 -17 0 -6 5 -5 12 2 6 6 9 14 7 17 -3 3
-9 2 -12 -2z"/>
<path d="M1981 2184 c0 -11 3 -14 6 -6 3 7 2 16 -1 19 -3 4 -6 -2 -5 -13z"/>
<path d="M4001 2154 c-12 -20 -20 -39 -17 -41 5 -5 46 57 46 70 0 15 -8 6 -29
-29z"/>
<path d="M4074 2143 c-16 -26 -33 -54 -79 -128 -27 -42 -11 -27 35 36 22 29
40 57 40 63 0 5 7 18 17 28 9 10 14 21 10 24 -3 3 -13 -7 -23 -23z"/>
<path d="M4510 2141 c0 -11 5 -23 10 -26 6 -3 10 3 10 14 0 11 -4 23 -10 26
-5 3 -10 -3 -10 -14z"/>
<path d="M2770 2116 c0 -7 82 -57 87 -52 3 2 -13 16 -36 30 -39 25 -51 30 -51
22z"/>
<path d="M4453 2072 c3 -29 7 -55 11 -59 10 -11 6 81 -4 97 -7 11 -9 0 -7 -38z"/>
<path d="M3009 2066 c19 -20 39 -36 45 -36 13 0 -34 49 -59 62 -12 6 -6 -4 14
-26z"/>
<path d="M4520 2084 c0 -8 5 -12 10 -9 6 3 10 10 10 16 0 5 -4 9 -10 9 -5 0
-10 -7 -10 -16z"/>
<path d="M1970 2081 c0 -6 5 -13 10 -16 6 -3 10 1 10 9 0 9 -4 16 -10 16 -5 0
-10 -4 -10 -9z"/>
<path d="M2020 2074 c0 -8 5 -12 10 -9 6 4 8 11 5 16 -9 14 -15 11 -15 -7z"/>
<path d="M3940 2055 c-7 -9 -11 -18 -8 -20 3 -3 11 1 18 10 7 9 11 18 8 20 -3
3 -11 -1 -18 -10z"/>
<path d="M2015 2030 c2 -27 15 -38 15 -12 0 11 -4 23 -8 26 -5 3 -8 -4 -7 -14z"/>
<path d="M2890 2030 c0 -5 5 -10 11 -10 5 0 7 5 4 10 -3 6 -8 10 -11 10 -2 0
-4 -4 -4 -10z"/>
<path d="M3077 2000 c10 -11 22 -20 27 -20 5 0 1 9 -9 20 -10 11 -22 20 -26
20 -5 0 -1 -9 8 -20z"/>
<path d="M3897 1975 c-21 -43 -21 -51 -4 -33 14 14 37 53 37 62 0 18 -19 1
-33 -29z"/>
<path d="M2015 1980 c-3 -5 -1 -10 4 -10 6 0 11 5 11 10 0 6 -2 10 -4 10 -3 0
-8 -4 -11 -10z"/>
<path d="M2990 1961 c19 -17 40 -31 45 -31 11 0 -29 35 -60 51 -11 6 -4 -3 15
-20z"/>
<path d="M2700 1969 c0 -5 5 -7 10 -4 6 3 10 8 10 11 0 2 -4 4 -10 4 -5 0 -10
-5 -10 -11z"/>
<path d="M2790 1974 c0 -5 7 -18 15 -28 12 -16 15 -17 15 -4 0 8 -7 21 -15 28
-8 7 -15 9 -15 4z"/>
<path d="M3120 1960 c0 -5 5 -10 11 -10 5 0 7 5 4 10 -3 6 -8 10 -11 10 -2 0
-4 -4 -4 -10z"/>
<path d="M2710 1921 c0 -11 3 -22 8 -24 4 -3 7 6 7 19 0 13 -3 24 -7 24 -5 0
-8 -9 -8 -19z"/>
<path d="M4260 1924 c0 -14 3 -14 15 -4 8 7 15 14 15 16 0 2 -7 4 -15 4 -8 0
-15 -7 -15 -16z"/>
<path d="M1026 1915 c-10 -8 -16 -21 -13 -28 7 -17 -17 -39 -97 -91 -45 -29
-63 -36 -75 -29 -11 7 -23 6 -38 -4 l-22 -15 41 -61 c23 -34 42 -63 44 -65 1
-2 12 2 24 8 15 8 19 17 15 31 -8 24 7 24 100 1 l69 -18 -47 -33 c-30 -20 -54
-30 -66 -26 -23 7 -51 -3 -51 -19 0 -8 54 -98 76 -124 1 -2 12 2 24 8 14 8 20
18 17 30 -4 15 14 32 79 76 70 48 86 55 99 44 13 -10 19 -10 34 4 19 17 19 19
-11 67 -17 27 -37 54 -45 61 -21 17 -49 -3 -45 -32 3 -16 0 -21 -10 -18 -7 3
-40 11 -73 18 -33 7 -64 16 -68 20 -5 4 13 22 38 39 37 25 50 29 61 20 11 -9
19 -8 34 6 19 17 18 18 -20 76 -48 69 -50 71 -74 54z"/>
<path d="M3160 1924 c0 -6 17 -29 38 -50 78 -83 144 -169 135 -178 -4 -3 -1
-6 5 -6 7 0 12 7 12 15 0 8 -4 15 -9 15 -5 0 -20 17 -32 38 -13 20 -29 41 -36
45 -7 4 -13 14 -13 20 0 7 -22 35 -50 62 -27 27 -50 45 -50 39z"/>
<path d="M3860 1909 c0 -5 5 -7 10 -4 6 3 10 8 10 11 0 2 -4 4 -10 4 -5 0 -10
-5 -10 -11z"/>
<path d="M3100 1875 c36 -43 130 -129 130 -119 0 5 -35 41 -78 79 -42 39 -66
57 -52 40z"/>
<path d="M3836 1874 c-8 -22 -4 -25 11 -9 7 8 9 16 4 19 -5 3 -12 -1 -15 -10z"/>
<path d="M4180 1863 c0 -10 5 -25 10 -33 7 -11 10 -7 10 18 0 17 -4 32 -10 32
-5 0 -10 -8 -10 -17z"/>
<path d="M5278 1853 c-30 -33 -53 -76 -62 -119 -14 -66 46 -144 138 -179 62
-24 112 -10 159 45 43 51 67 117 46 131 -25 16 -47 10 -53 -15 -9 -37 -70 -86
-98 -78 -37 9 -79 38 -99 69 -24 35 -24 45 0 74 16 20 21 22 35 10 14 -12 19
-11 31 5 21 28 18 37 -20 62 -44 28 -46 28 -77 -5z"/>
<path d="M2720 1863 c0 -4 5 -15 10 -23 8 -13 10 -13 10 2 0 9 -4 20 -10 23
-5 3 -10 3 -10 -2z"/>
<path d="M2665 1840 c3 -5 8 -10 11 -10 2 0 4 5 4 10 0 6 -5 10 -11 10 -5 0
-7 -4 -4 -10z"/>
<path d="M3791 1797 c-13 -21 -12 -21 5 -5 10 10 16 20 13 22 -3 3 -11 -5 -18
-17z"/>
<path d="M2685 1696 c1 -12 5 -20 8 -19 4 1 25 -4 48 -12 48 -17 69 -19 69 -6
0 8 -39 23 -70 26 -47 5 -46 5 -32 14 11 6 9 9 -5 13 -15 4 -19 0 -18 -16z"/>
<path d="M3410 1685 c0 -13 43 -95 50 -95 4 0 -3 23 -17 50 -22 45 -33 59 -33
45z"/>
<path d="M3826 1635 c-3 -8 -1 -15 4 -15 13 0 22 18 11 24 -5 3 -11 -1 -15 -9z"/>
<path d="M3390 1622 c0 -5 7 -15 15 -22 8 -7 15 -8 15 -2 0 5 -7 15 -15 22 -8
7 -15 8 -15 2z"/>
<path d="M3250 1606 c0 -2 8 -10 18 -17 15 -13 16 -12 3 4 -13 16 -21 21 -21
13z"/>
<path d="M1297 1528 c-15 -16 -16 -22 -6 -35 11 -13 2 -25 -61 -84 -56 -52
-79 -67 -95 -63 -13 3 -27 -1 -35 -11 -12 -14 -6 -23 40 -70 51 -52 55 -54 72
-38 10 9 16 23 13 31 -6 16 31 62 50 62 6 0 28 -17 49 -39 l37 -38 -32 -27
c-18 -15 -38 -25 -47 -21 -15 6 -42 -11 -42 -26 0 -5 23 -32 51 -60 48 -48 52
-50 70 -33 13 12 16 21 9 34 -7 14 5 31 65 90 59 56 78 70 89 61 10 -8 17 -6
31 9 19 21 18 22 -32 71 -45 46 -53 50 -72 39 -16 -8 -20 -17 -16 -31 7 -21
-18 -59 -40 -59 -14 0 -75 62 -75 76 0 17 41 49 62 49 41 0 43 28 5 65 -68 68
-70 69 -90 48z"/>
<path d="M5062 1521 c-35 -9 -87 -56 -105 -94 -42 -88 -2 -180 102 -232 92
-46 221 43 221 153 0 109 -113 199 -218 173z m41 -80 c14 -6 41 -26 61 -46 45
-45 50 -95 11 -121 -33 -22 -65 -12 -114 34 -54 51 -63 88 -27 119 31 26 35
27 69 14z"/>
<path d="M4733 1229 c-46 -36 -51 -43 -40 -60 6 -10 21 -19 33 -19 12 0 29
-12 39 -27 17 -26 17 -27 -6 -45 -13 -11 -32 -26 -42 -34 -17 -14 -21 -13 -43
13 -27 31 -29 40 -13 45 13 4 -9 48 -23 48 -14 0 -118 -85 -118 -96 0 -18 26
-35 43 -29 10 4 34 -19 76 -75 49 -65 59 -85 50 -96 -9 -11 -8 -18 2 -31 7
-10 14 -19 15 -21 4 -7 123 84 124 94 0 17 -27 37 -40 29 -10 -6 -59 42 -59
60 -1 11 72 65 86 65 15 -1 45 -51 39 -66 -7 -18 10 -54 25 -54 6 0 34 19 63
42 28 23 53 43 55 45 10 7 -34 43 -47 38 -16 -6 -19 -2 -88 93 -33 45 -43 66
-36 75 12 15 -8 47 -29 46 -8 0 -37 -18 -66 -40z"/>
<path d="M1632 1208 c-16 -16 -15 -35 1 -41 8 -2 -9 -35 -48 -91 -49 -71 -63
-86 -80 -82 -14 4 -25 -1 -33 -15 -11 -17 -10 -23 10 -39 13 -10 38 -27 56
-37 17 -10 32 -21 32 -25 0 -14 23 -8 36 9 8 12 9 22 2 30 -17 20 -1 30 60 36
32 4 66 9 75 13 24 9 21 -8 -10 -55 -17 -26 -34 -41 -47 -41 -12 0 -27 -9 -33
-19 -11 -18 -6 -24 45 -60 31 -23 62 -41 67 -41 16 0 36 38 25 45 -18 11 -10
30 46 108 44 61 60 76 74 72 13 -4 22 1 30 16 13 24 15 21 -58 74 l-53 38 -22
-24 c-14 -15 -17 -24 -9 -27 26 -8 12 -32 -20 -32 -18 0 -51 -5 -72 -10 -22
-5 -43 -7 -48 -4 -4 3 7 25 24 49 21 30 39 45 54 45 18 0 34 17 34 35 0 6
-112 85 -120 85 -3 0 -11 -5 -18 -12z"/>
<path d="M4365 970 c-25 -6 -192 -84 -203 -95 -11 -11 12 -45 31 -45 18 0 31
-18 65 -90 35 -71 41 -94 32 -105 -8 -10 -9 -19 0 -35 6 -12 14 -20 18 -18 4
2 53 27 110 57 112 58 137 85 126 141 -7 31 -45 70 -71 70 -10 0 -12 6 -8 21
17 53 -42 112 -100 99z m16 -92 c10 -19 8 -25 -17 -46 l-28 -24 -18 22 c-23
28 -23 46 0 59 28 17 50 13 63 -11z m63 -109 c18 -27 11 -46 -25 -64 -27 -14
-29 -14 -49 16 -12 16 -21 31 -19 33 54 41 72 44 93 15z"/>
<path d="M2025 947 c-13 -18 -13 -23 -1 -36 13 -14 9 -28 -24 -106 -29 -68
-43 -91 -59 -93 -12 -2 -26 -12 -32 -23 -9 -18 -2 -23 73 -58 46 -20 109 -48
140 -62 60 -25 69 -40 43 -75 -20 -27 -19 -31 15 -48 l31 -15 28 62 c28 61 29
62 9 79 -19 17 -19 19 23 113 32 73 45 95 57 90 8 -3 19 0 24 7 11 19 10 48
-3 48 -6 0 -34 12 -62 26 l-52 25 -17 -22 c-16 -19 -17 -23 -3 -33 14 -10 10
-23 -30 -109 l-45 -97 -50 25 -49 25 28 62 c15 35 34 78 42 96 8 18 21 32 31
32 14 0 36 36 26 45 -1 2 -31 17 -66 33 l-62 30 -15 -21z"/>
<path d="M3978 810 c-26 -9 -51 -19 -54 -22 -11 -12 7 -47 26 -50 16 -3 14
-10 -22 -70 -22 -37 -44 -66 -48 -63 -4 2 -13 25 -20 50 -10 35 -10 49 -1 58
13 13 14 27 2 45 -7 11 -19 11 -72 -4 -35 -9 -68 -20 -72 -24 -15 -13 3 -50
23 -50 19 0 26 -17 62 -154 10 -39 10 -50 1 -53 -20 -7 -16 -53 5 -53 32 0
137 38 136 49 -1 6 -2 18 -2 26 -1 8 -9 15 -17 15 -8 0 -15 5 -15 11 0 20 65
129 75 126 5 -2 15 -23 22 -48 10 -34 11 -49 2 -66 -15 -28 -4 -57 19 -50 9 3
40 11 67 18 28 8 53 18 56 22 12 16 -3 46 -23 49 -16 2 -26 22 -50 98 -26 86
-27 96 -12 107 23 17 9 53 -19 52 -12 -1 -43 -9 -69 -19z"/>
<path d="M2450 769 c-14 -25 -12 -39 5 -39 19 0 19 -7 -4 -106 -20 -91 -26
-104 -46 -104 -15 0 -30 -34 -21 -49 7 -11 134 -34 146 -26 13 8 13 45 0 45
-37 0 39 61 123 98 11 5 8 -34 -5 -78 -9 -27 -19 -40 -31 -40 -14 0 -18 -6
-15 -27 3 -25 9 -28 71 -41 74 -16 72 -17 81 16 6 16 3 22 -8 22 -21 0 -20 10
5 119 17 73 24 91 39 91 11 0 20 10 24 26 4 15 6 27 4 28 -2 2 -30 8 -63 16
-33 7 -66 15 -72 17 -7 3 -17 -6 -22 -18 -7 -18 -5 -27 7 -37 10 -7 12 -15 6
-21 -16 -15 -127 -71 -132 -67 -2 3 1 27 8 54 8 35 17 52 31 55 12 3 19 14 19
29 0 22 -7 26 -70 40 -67 14 -72 14 -80 -3z"/>
<path d="M3421 694 c-57 -7 -104 -14 -106 -16 -2 -2 0 -27 2 -55 4 -42 9 -53
23 -53 35 0 47 10 42 36 -4 20 0 24 21 24 29 0 32 -10 43 -132 5 -68 4 -78
-10 -78 -11 0 -16 -9 -16 -30 l0 -29 53 6 c94 10 112 17 112 44 0 17 -6 25
-21 27 -20 3 -23 12 -30 90 -12 119 -12 117 13 120 16 2 22 -3 25 -20 2 -18 9
-23 33 -23 18 0 30 5 29 13 -1 6 -2 30 -2 52 l-2 40 -52 -1 c-29 -1 -100 -7
-157 -15z"/>
<path d="M2975 569 c-27 -68 -57 -130 -67 -138 -9 -9 -18 -27 -20 -41 -3 -25
-2 -25 67 -25 65 0 70 2 73 23 2 13 -3 24 -12 28 -8 3 -12 12 -9 20 6 17 75
19 105 3 20 -11 21 -12 4 -25 -10 -7 -16 -22 -14 -36 3 -22 7 -23 73 -23 61 0
70 2 73 19 2 11 -3 25 -12 32 -13 9 -55 130 -92 262 -2 7 -20 12 -41 12 -21 0
-47 3 -58 5 -17 5 -26 -10 -70 -116z m125 -50 c0 -14 -7 -19 -30 -19 -35 0
-38 13 -14 68 l15 37 15 -34 c8 -18 14 -42 14 -52z"/>
</g>
</svg>
