<?xml version="1.0" standalone="no"?>
<!DOCTYPE svg PUBLIC "-//W3C//DTD SVG 20010904//EN"
 "http://www.w3.org/TR/2001/REC-SVG-20010904/DTD/svg10.dtd">
<svg version="1.0" xmlns="http://www.w3.org/2000/svg"
 width="600.000000pt" height="600.000000pt" viewBox="0 0 600.000000 600.000000"
 preserveAspectRatio="xMidYMid meet">
<metadata>
Created by potrace 1.11, written by Peter Selinger 2001-2013
</metadata>
<g transform="translate(0.000000,600.000000) scale(0.100000,-0.100000)"
fill="#000000" stroke="none">
<path d="M2798 5995 c-2 -1 -39 -5 -83 -9 -239 -18 -479 -70 -705 -151 -182
-65 -434 -185 -535 -255 -24 -17 -46 -30 -49 -30 -3 0 -7 26 -9 58 l-3 57 -2
-63 c-2 -62 -2 -62 -49 -95 -224 -155 -516 -429 -696 -655 -248 -310 -434
-679 -532 -1058 -27 -107 -29 -116 -45 -204 -18 -104 -20 -122 -40 -305 -8
-80 -6 -563 3 -600 3 -11 8 -54 12 -95 4 -41 9 -78 11 -81 1 -3 6 -28 9 -55
17 -128 94 -397 162 -564 156 -385 364 -693 682 -1010 133 -133 170 -166 301
-271 155 -123 414 -279 590 -354 36 -15 83 -35 105 -45 177 -78 504 -155 790
-187 133 -15 676 -6 705 12 3 2 30 6 60 10 30 4 57 8 60 10 3 2 26 6 50 10 80
12 248 54 353 89 437 145 795 368 1137 706 321 317 525 608 691 985 74 170
163 477 185 640 3 22 8 51 10 65 6 30 12 78 23 190 8 76 6 508 -3 570 -1 14
-6 50 -10 80 -13 100 -38 243 -57 325 -90 401 -287 801 -566 1150 -89 111
-321 351 -423 437 -30 25 -71 59 -90 75 -69 58 -212 156 -315 218 -57 34 -101
66 -97 70 4 5 2 5 -4 2 -6 -3 -40 9 -75 27 -289 145 -637 251 -924 281 -33 4
-76 9 -95 12 -35 5 -527 12 -532 8z"/>
</g>
</svg>
